<svg width="18" height="23" viewBox="0 0 18 23" fill="none" xmlns="http://www.w3.org/2000/svg">
<path d="M15.6663 7.66678H14.5711V5.47631C14.5711 2.45346 12.1178 0.00012207 9.09492 0.00012207C6.07207 0.00012207 3.61872 2.45346 3.61872 5.47631V7.66678H2.52348C1.31872 7.66678 0.333008 8.65249 0.333008 9.85728V20.8096C0.333008 22.0144 1.31872 23.0001 2.52348 23.0001H15.6663C16.8711 23.0001 17.8568 22.0144 17.8568 20.8096V9.85728C17.8568 8.65249 16.8711 7.66678 15.6663 7.66678ZM9.09492 17.5239C7.89013 17.5239 6.90442 16.5382 6.90442 15.3334C6.90442 14.1287 7.89013 13.143 9.09492 13.143C10.2996 13.143 11.2853 14.1287 11.2853 15.3334C11.2853 16.5382 10.2996 17.5239 9.09492 17.5239ZM5.80921 7.66678V5.47631C5.80921 3.65822 7.27677 2.1906 9.09492 2.1906C10.913 2.1906 12.3806 3.65822 12.3806 5.47631V7.66678H5.80921Z" fill="url(#paint0_linear_102_161)"/>
<defs>
<linearGradient id="paint0_linear_102_161" x1="9.09492" y1="0.00012207" x2="9.09492" y2="23.0001" gradientUnits="userSpaceOnUse">
<stop offset="0.185931" stop-color="#FFBF00"/>
<stop offset="0.794051" stop-color="#F2A50C"/>
</linearGradient>
</defs>
</svg>
